<?xml version="1.0" encoding="UTF-8" standalone="no"?>
<!DOCTYPE svg PUBLIC "-//W3C//DTD SVG 1.1//EN" "http://www.w3.org/Graphics/SVG/1.1/DTD/svg11.dtd">
<svg version="1.1" xmlns="http://www.w3.org/2000/svg" xmlns:xlink="http://www.w3.org/1999/xlink" preserveAspectRatio="xMidYMid meet" viewBox="0 0 24 24" width="24" height="24"><defs><path d="M12.25 0.07C12.09 -0.02 11.91 -0.02 11.75 0.07C10.7 0.67 2.3 5.47 1.25 6.07C1.1 6.15 1 6.32 1 6.5C1 7.6 1 16.4 1 17.5C1 17.68 1.1 17.84 1.25 17.93C2.3 18.53 10.7 23.33 11.75 23.93C11.83 23.98 11.91 24 12 24C12.09 24 12.17 23.98 12.25 23.93C13.3 23.33 21.7 18.53 22.75 17.93C22.9 17.84 23 17.68 23 17.5C23 16.4 23 7.6 23 6.5C23 6.32 22.9 6.15 22.75 6.07C20.65 4.87 13.3 0.67 12.25 0.07Z" id="g6qENLM8yD"></path></defs><g><g><g><use xlink:href="#g6qENLM8yD" opacity="1" fill="#000000" fill-opacity="1"></use><g><use xlink:href="#g6qENLM8yD" opacity="1" fill-opacity="0" stroke="#000000" stroke-width="1" stroke-opacity="0"></use></g></g></g></g></svg>