<svg width="24" height="24" viewBox="0 0 24 24" fill="none" xmlns="http://www.w3.org/2000/svg">
<g clip-path="url(#clip0)">
<path d="M9.81819 7.06124C9.81819 8.85465 13.3855 9.79326 16.9091 9.79326C20.4328 9.79326 24.0001 8.85465 24.0001 7.06124C24 3.47438 9.81819 3.47438 9.81819 7.06124Z" fill="white"/>
<path d="M23.7369 9.70749C23.5744 9.60931 23.3704 9.60236 23.2016 9.69097C21.7325 10.4615 19.4979 10.8862 16.9091 10.8862C14.3203 10.8862 12.0858 10.4615 10.6167 9.69097C10.4478 9.60241 10.2438 9.60931 10.0813 9.70749C9.91781 9.80618 9.81819 9.98388 9.81819 10.1749V10.3398C9.81819 12.1332 13.3855 13.0718 16.9091 13.0718C20.4328 13.0718 24.0001 12.1332 24.0001 10.3398V10.1749C24 9.98388 23.9004 9.80618 23.7369 9.70749Z" fill="white"/>
<path d="M3.27274 17.9895C3.27274 19.7829 6.84001 20.7215 10.3637 20.7215C13.8873 20.7215 17.4546 19.7829 17.4546 17.9895C17.4545 14.4026 3.27274 14.4026 3.27274 17.9895Z" fill="white"/>
<path d="M17.1914 20.636C17.0284 20.5384 16.825 20.5309 16.6561 20.6195C15.187 21.39 12.9524 21.8148 10.3637 21.8148C7.77489 21.8148 5.54033 21.39 4.07123 20.6195C3.90238 20.5309 3.69834 20.5384 3.53588 20.636C3.37235 20.7347 3.27274 20.9124 3.27274 21.1035V21.2683C3.27274 23.0618 6.84001 24.0003 10.3637 24.0003C13.8873 24.0003 17.4546 23.0617 17.4546 21.2683V21.1035C17.4545 20.9124 17.3549 20.7347 17.1914 20.636Z" fill="white"/>
<path d="M7.09093 5.4222C7.8276 5.4222 8.56432 5.38058 9.28075 5.29789C9.39739 5.28454 9.50661 5.23387 9.59237 5.15328C10.4185 4.37421 11.8301 3.79954 13.6742 3.49165C13.8692 3.45908 14.0317 3.32357 14.0983 3.13682C14.1547 2.97942 14.1819 2.83322 14.1819 2.69019C14.1818 -0.896722 0 -0.896722 0 2.69014C0 4.4836 3.56728 5.4222 7.09093 5.4222Z" fill="white"/>
<path d="M7.09093 8.70078C7.54262 8.70078 7.98316 8.68528 8.40984 8.657C8.58191 8.64524 8.73798 8.5535 8.83172 8.40833C8.92494 8.26371 8.94463 8.08284 8.885 7.92115C8.77899 7.63566 8.72735 7.35446 8.73001 7.0322C8.73001 6.88278 8.66874 6.7398 8.56059 6.63681C8.453 6.53382 8.30118 6.47138 8.1584 6.48631C7.80203 6.50339 7.44566 6.5151 7.09093 6.5151C4.50215 6.5151 2.26759 6.09037 0.798495 5.31984C0.629642 5.23127 0.425608 5.23823 0.263148 5.33636C0.0996137 5.43516 0 5.61285 0 5.8039V5.96876C0 7.76222 3.56728 8.70078 7.09093 8.70078Z" fill="white"/>
<path d="M7.09093 11.9791C7.54262 11.9791 7.98316 11.9636 8.40984 11.9353C8.58191 11.9236 8.73798 11.8318 8.83172 11.6867C8.92494 11.542 8.94463 11.3612 8.885 11.1995C8.77899 10.914 8.72735 10.6328 8.72735 10.3105C8.72735 10.1611 8.66608 10.0181 8.55793 9.91513C8.45034 9.81214 8.30118 9.75344 8.15574 9.76464C7.80045 9.78172 7.44515 9.79343 7.09093 9.79343C4.50215 9.79343 2.26759 9.36869 0.798495 8.59816C0.629642 8.50959 0.425608 8.51655 0.263148 8.61468C0.0996137 8.71348 0 8.89117 0 9.08217V9.24703C0 11.0405 3.56728 11.9791 7.09093 11.9791Z" fill="white"/>
<path d="M23.7369 16.2642C23.5734 16.1644 23.3704 16.1591 23.2015 16.2477C22.1751 16.7861 20.731 17.1623 19.026 17.3346C18.7383 17.364 18.5333 17.7002 18.5455 17.9894C18.5455 18.2663 18.5007 18.531 18.4091 18.7972C18.3483 18.9739 18.3819 19.1697 18.4981 19.3159C18.6025 19.4467 18.7596 19.5219 18.9248 19.5219C18.9439 19.5219 18.9636 19.5208 18.9834 19.5187C22.1245 19.1793 24 18.1991 24 16.8966V16.7316C24 16.5406 23.9004 16.3629 23.7369 16.2642Z" fill="white"/>
<path d="M10.3637 14.1646L10.7253 14.171C10.7286 14.171 10.7317 14.171 10.735 14.171C10.9896 14.171 11.2106 13.9944 11.2671 13.7452C11.3241 13.4922 11.1963 13.2345 10.9608 13.1272L10.8441 13.0749C10.7664 13.0408 10.6881 13.0066 10.6156 12.9687C10.4457 12.8796 10.2444 12.8876 10.0808 12.9863C9.9178 13.085 9.81824 13.2622 9.81824 13.4532V13.618C9.81819 13.9202 10.0622 14.1646 10.3637 14.1646Z" fill="white"/>
<path d="M23.7369 12.9863C23.5744 12.8881 23.3704 12.8812 23.2016 12.9698C21.7325 13.7403 19.4979 14.165 16.9091 14.165L16.549 14.1581C16.329 14.1394 16.0659 14.3331 16.0099 14.5855C15.9535 14.8379 16.0813 15.0951 16.3162 15.2018C16.907 15.4707 17.3896 15.7904 17.7502 16.1516C17.853 16.2541 17.9915 16.3111 18.1359 16.3111C18.1471 16.3111 18.1588 16.3106 18.1705 16.3101C20.8594 16.1393 24 15.332 24 13.6186V13.4537C24 13.2627 23.9004 13.085 23.7369 12.9863Z" fill="white"/>
<path d="M4.56178 15.0877C4.62994 15.0877 4.69816 15.0749 4.76259 15.0493C5.72354 14.6688 6.89539 14.4068 8.24626 14.2708C8.5339 14.242 8.73952 13.8781 8.72724 13.5888C8.72724 13.4394 8.66598 13.2964 8.55783 13.1935C8.45024 13.0905 8.30107 13.0355 8.15564 13.043C7.80035 13.06 7.44505 13.0718 7.09083 13.0718C4.50205 13.0718 2.26749 12.647 0.798393 11.8765C0.62954 11.7879 0.425506 11.7949 0.263046 11.893C0.0996137 11.9917 0 12.1694 0 12.3604V12.5253C0 13.7328 1.67686 14.689 4.48615 15.0823C4.5112 15.0861 4.53677 15.0877 4.56178 15.0877Z" fill="white"/>
</g>
<defs>
<clipPath id="clip0">
<rect width="24" height="24" fill="white"/>
</clipPath>
</defs>
</svg>
